<?xml version="1.0" encoding="utf-8"?>
<!-- Generator: Adobe Illustrator 21.1.0, SVG Export Plug-In . SVG Version: 6.00 Build 0)  -->
<svg version="1.1" id="Layer_1" xmlns="http://www.w3.org/2000/svg" xmlns:xlink="http://www.w3.org/1999/xlink" x="0px" y="0px"
	 viewBox="0 0 225 50" style="enable-background:new 0 0 225 50;" xml:space="preserve">
<style type="text/css">
	.st0{fill:#8C1D40;}
	.st1{fill:#FFFFFF;}
	.st2{fill:#EDAA00;}
</style>
<g>
	<g>
		<path class="st0" d="M6.7,3.9L5.2,4.4c-1,0.4-2,0.7-2.8,1C1.7,5.7,1.6,5.9,1.6,6.3H1.3V4.2h0.2l0,0.2c0,0.3,0.1,0.3,0.4,0.2
			c0.2-0.1,0.7-0.3,1.2-0.4V2.7C3,2.6,2.5,2.5,2.2,2.3C1.7,2.2,1.6,2.3,1.6,2.6l0,0.2H1.3V1h0.2c0.1,0.5,0.1,0.6,0.8,0.9l4.2,1.6
			L6.7,3.9z M3.6,2.8v1.3l1.8-0.6v0L3.6,2.8z"/>
		<path class="st0" d="M6.6,9.1c0,0.9-0.2,1.7-0.7,2.3c-0.4,0.4-1,0.7-1.7,0.7c-2,0-2.9-1.5-2.9-3.4v-2h0.2c0,0.7,0.1,0.7,1,0.7h2.8
			c0.9,0,0.9-0.1,1-0.7h0.2V9.1z M2.6,8.3C1.8,8.3,1.7,8.4,1.7,9c0,1.3,0.9,2,2.3,2c1.7,0,2.3-0.9,2.3-2.2c0-0.3,0-0.5-0.1-0.5
			c0,0-0.2,0-0.4,0H2.6z"/>
		<path class="st0" d="M4,16.3c-0.5,0-0.9-0.4-0.9-0.9c0-0.5,0.4-0.9,0.9-0.9c0.5,0,0.9,0.4,0.9,0.9C4.9,15.9,4.5,16.3,4,16.3z"/>
		<path class="st0" d="M6.6,19.8l-3.9,1.8l3.9,1.7v1.5H6.4c-0.1-0.7-0.1-0.7-1-0.7l-2.8,0.1c-0.9,0-0.9,0-1,0.7H1.3v-2.3h0.2
			c0.1,0.6,0.1,0.7,1,0.6l3.1,0v0l-4.2-1.8v-0.2l4.1-1.8v0l-2.1-0.1c-0.7,0-1.2,0-1.4,0c-0.3,0-0.4,0.2-0.4,0.7H1.3v-1.9h0.2
			c0,0.4,0.1,0.6,0.4,0.6c0.2,0,0.7,0.1,1.5,0.1L5.1,19c1.1,0.1,1.2,0,1.2-0.7h0.2V19.8z"/>
		<path class="st0" d="M6.7,28.1l-1.5,0.6c-1,0.4-2,0.7-2.8,1.1c-0.7,0.3-0.8,0.4-0.8,0.9l-0.2,0l0-2.1l0.2,0l0,0.2
			C1.7,29,1.7,29.1,2.1,29c0.2-0.1,0.7-0.3,1.2-0.5l0-1.5c-0.2-0.1-0.7-0.2-1-0.4c-0.4-0.1-0.5-0.1-0.6,0.3l0,0.2l-0.2,0l0-1.8
			l0.2,0c0.1,0.5,0.1,0.6,0.8,0.9l4.2,1.6L6.7,28.1z M3.6,27.1l0,1.3l1.8-0.7v0L3.6,27.1z"/>
		<path class="st0" d="M5.7,30.6c0.8-0.3,0.9-0.3,0.7-1l0.2-0.1l0.7,2.2l-0.2,0.1c-0.2-0.5-0.3-0.6-1.1-0.3l-2.5,0.8
			c-0.8,0.3-1.5,0.4-2.3-0.1c-0.3-0.2-0.5-0.4-0.7-0.8l0.2-0.2c0.4,0.4,0.8,0.5,1.3,0.5c0.4,0,0.9-0.2,1.4-0.3L5.7,30.6z"/>
		<path class="st0" d="M7.4,37.6c-1.5,0.9-3.1,0.5-3.9-0.8C2.6,35.5,3,34,4.3,33.2c1.1-0.7,2.9-0.8,3.9,0.8
			C9,35.2,8.7,36.7,7.4,37.6z M5.1,33.9c-1.2,0.8-1.8,2-1.2,2.9c0.5,0.7,1.4,0.9,2.7,0c1.4-0.9,1.8-2,1.3-2.9
			C7.3,33.2,6.3,33.1,5.1,33.9z"/>
		<path class="st0" d="M11.2,37.1c0.5,0.4,0.7,0.7,0.8,1.1c0.1,0.4,0.1,0.8-0.2,1.1c-0.4,0.5-1.1,0.6-1.7,0.4c0,0.3-0.2,0.9-0.2,1.3
			c0,0.5-0.1,0.9-0.1,1.1c0,0.3,0,0.5,0.2,0.6L9.8,43l-0.3-0.2c-0.6-0.6-0.7-1-0.7-1.5c0-0.5,0.2-1,0.3-1.5c0-0.3,0-0.4-0.2-0.5
			L8.8,39l-0.7,0.8C7.5,40.5,7.6,40.6,8,41l-0.1,0.2l-1.8-1.5l0.1-0.2C6.8,40,6.9,40,7.4,39.3l1.8-2.2c0.6-0.7,0.6-0.8,0.1-1.2
			l0.1-0.2L11.2,37.1z M9,38.8L9.2,39c0.2,0.2,0.5,0.3,0.7,0.3c0.4,0,0.8-0.2,1-0.5c0.5-0.6,0.3-1.2-0.1-1.6c-0.3-0.2-0.3-0.2-0.5,0
			L9,38.8z"/>
		<path class="st0" d="M16.2,40.6c-0.1,0.1-0.3,0.7-0.5,1.1l-0.2-0.1c0.1-0.4,0.1-0.6,0.1-0.8c-0.1-0.2-0.3-0.4-0.7-0.6L14.5,40
			c-0.3-0.2-0.3-0.2-0.4,0.1l-0.8,1.5l0.6,0.3c0.6,0.3,0.6,0.3,1-0.2l0.2,0.1l-0.9,1.5L14,43.3c0.2-0.6,0.2-0.6-0.4-1l-0.6-0.3
			l-0.7,1.2c-0.2,0.4-0.3,0.6-0.2,0.8c0.1,0.2,0.3,0.3,0.6,0.5c0.4,0.2,0.7,0.4,0.9,0.3c0.2-0.1,0.5-0.2,0.8-0.5l0.2,0.2
			c-0.2,0.2-0.7,0.9-0.9,1l-3.4-2l0.1-0.2c0.6,0.3,0.7,0.3,1.2-0.5l1.4-2.5c0.4-0.8,0.4-0.8-0.1-1.2l0.1-0.2L16.2,40.6z"/>
		<path class="st0" d="M18.1,41.5l0.2,4.3l3-3l1.4,0.6l-0.1,0.2c-0.6-0.2-0.7-0.2-1,0.7l-1,2.7c-0.3,0.9-0.3,0.9,0.3,1.2L21,48.3
			l-2.1-0.8l0.1-0.2c0.6,0.2,0.6,0.2,1-0.7l1.1-2.9l0,0l-3.3,3.2l-0.2-0.1l-0.1-4.4l0,0l-0.8,1.9c-0.3,0.7-0.4,1.1-0.5,1.3
			c-0.1,0.3,0,0.4,0.5,0.7l-0.1,0.2l-1.8-0.7l0.1-0.2c0.4,0.1,0.6,0.1,0.7-0.2c0.1-0.2,0.4-0.6,0.7-1.3l0.7-1.5
			c0.5-1,0.4-1.1-0.2-1.4l0.1-0.2L18.1,41.5z"/>
		<path class="st0" d="M26.6,47.2c-0.2,0.5-0.7,0.7-1.1,0.6c-0.5-0.2-0.7-0.7-0.6-1.1c0.2-0.5,0.7-0.7,1.1-0.6
			C26.5,46.2,26.8,46.7,26.6,47.2z"/>
		<path class="st0" d="M30.5,43c0.8-0.3,1.7-0.5,2.4-0.2c0.5,0.2,1,0.7,1.2,1.3c0.7,1.9-0.4,3.2-2.2,3.9l-1.9,0.7L30,48.6
			c0.6-0.3,0.6-0.4,0.3-1.2l-1-2.6c-0.3-0.8-0.4-0.9-1-0.7l-0.1-0.2L30.5,43z M31.2,47c0.3,0.7,0.4,0.8,1,0.6c1.2-0.5,1.5-1.7,1-2.9
			c-0.7-1.6-1.7-1.8-2.9-1.3c-0.2,0.1-0.4,0.2-0.5,0.3c0,0.1,0,0.2,0.1,0.4L31.2,47z"/>
		<path class="st0" d="M36.4,40.3c0.1,0.1,0.4,0.6,0.6,1.1l-0.2,0.1c-0.3-0.3-0.4-0.5-0.6-0.5c-0.2-0.1-0.4,0-0.9,0.2L35,41.4
			c-0.3,0.1-0.3,0.1-0.2,0.4l0.8,1.5l0.6-0.3c0.6-0.3,0.6-0.4,0.4-1l0.2-0.1l0.8,1.5l-0.2,0.1C37,43,37,43,36.4,43.3l-0.6,0.3
			l0.6,1.2c0.2,0.4,0.3,0.6,0.5,0.6c0.2,0,0.4-0.1,0.7-0.3c0.4-0.2,0.7-0.4,0.7-0.6c0.1-0.2,0-0.5,0-0.9l0.2-0.1
			c0.1,0.3,0.3,1.1,0.4,1.3l-3.5,1.8l-0.1-0.2c0.6-0.4,0.6-0.4,0.2-1.2l-1.3-2.5c-0.4-0.8-0.5-0.8-1.1-0.6L33.1,42L36.4,40.3z"/>
		<path class="st0" d="M38.9,38.7l0.1,0.2c-0.5,0.4-0.5,0.5-0.1,1.2l1.5,2.4c0.5,0.7,0.6,0.8,1.1,0.5l0.1,0.2l-1.9,1.2l-0.1-0.2
			c0.5-0.4,0.5-0.5,0.1-1.2l-1.5-2.4c-0.5-0.7-0.6-0.8-1.1-0.5L37,39.9L38.9,38.7z"/>
		<path class="st0" d="M43.2,38.6c0.3,0.4,0.3,1-0.1,1.3c-0.4,0.3-1,0.2-1.3-0.2c-0.3-0.4-0.2-1,0.1-1.3
			C42.3,38.1,42.9,38.2,43.2,38.6z"/>
		<g>
			<path class="st0" d="M48.7,33.5c0.3,0.1,0.5,0.2,0.7,0.2c0,0.5,0,1.2-0.2,1.8c-0.6,1.7-2,2.5-3.5,2c-1.8-0.6-2.2-2.3-1.7-3.8
				c0.2-0.7,0.5-1.2,0.7-1.4c0.3,0.1,0.7,0.2,1.3,0.3l0,0.3c-1-0.1-1.4,0.5-1.7,1.1c-0.3,1.1,0.2,2.1,1.6,2.5c1.2,0.4,2.6,0.3,3-1.1
				c0.1-0.2,0.1-0.4,0.1-0.5c0-0.2-0.1-0.3-0.4-0.4l-0.6-0.2C47.4,34,47.3,34,47,34.8l-0.2-0.1l0.7-2.1l0.2,0.1
				c-0.1,0.4,0,0.5,0.5,0.6L48.7,33.5z"/>
			<path class="st0" d="M45,29.2l0.2,0c0,0.6,0,0.7,0.9,0.8l2.8,0.4c0.5,0.1,0.7,0,0.8-0.1c0.1-0.1,0.2-0.4,0.2-0.6
				c0.1-0.4,0.2-1.3,0-1.5c-0.1-0.2-0.4-0.3-0.8-0.5l0.1-0.2c0.2,0.1,1,0.4,1.3,0.5l-0.6,4.4l-0.2,0c0-0.7,0-0.8-0.9-0.9L46,31
				c-0.9-0.1-0.9-0.1-1.1,0.6l-0.2,0L45,29.2z"/>
			<path class="st0" d="M48,21.9c1.7,0.1,2.8,1.4,2.7,2.9c-0.1,1.6-1.4,2.6-2.8,2.5c-1.3-0.1-2.8-1.1-2.6-3
				C45.3,22.9,46.4,21.8,48,21.9z M47.6,26.2c1.5,0.1,2.6-0.5,2.7-1.6c0.1-0.8-0.6-1.5-2.1-1.6c-1.7-0.1-2.7,0.5-2.7,1.6
				C45.4,25.4,46.2,26.1,47.6,26.2z"/>
			<path class="st0" d="M45.3,19.5c0-0.6,0.1-1,0.3-1.3c0.2-0.3,0.6-0.5,1-0.5c0.7,0,1.2,0.4,1.4,1.1c0.2-0.1,0.8-0.4,1.2-0.7
				c0.4-0.3,0.7-0.5,0.9-0.7c0.2-0.2,0.3-0.3,0.4-0.6l0.2,0l0,0.3c-0.1,0.9-0.3,1.2-0.7,1.5c-0.4,0.3-0.9,0.5-1.3,0.8
				c-0.2,0.1-0.3,0.2-0.3,0.5v0.3h1.1c0.9,0,0.9-0.1,1-0.7h0.2v2.3h-0.2c0-0.6-0.1-0.7-1-0.7h-2.8c-0.9,0-0.9,0.1-1,0.7h-0.2V19.5z
				 M48,20.1v-0.3c0-0.3,0-0.6-0.2-0.8c-0.3-0.3-0.6-0.4-1-0.4c-0.8,0-1.1,0.6-1.1,1.1c0,0.4,0,0.4,0.3,0.4H48z"/>
			<path class="st0" d="M45.3,13.9h0.2c0,0.6,0.1,0.7,1,0.7h2.8c0.9,0,0.9-0.1,1-0.7h0.2v2.3h-0.2c0-0.6-0.1-0.7-1-0.7h-2.8
				c-0.9,0-0.9,0.1-1,0.7h-0.2V13.9z"/>
			<path class="st0" d="M45.2,10.7l1.5-0.6c1-0.4,2-0.7,2.8-1c0.7-0.3,0.8-0.4,0.8-0.9h0.2v2.1h-0.2l0-0.2c0-0.3-0.1-0.3-0.4-0.2
				c-0.2,0.1-0.7,0.3-1.2,0.4v1.5c0.2,0.1,0.7,0.3,1,0.4c0.4,0.1,0.5,0.1,0.6-0.3l0-0.2h0.2v1.8h-0.2c-0.1-0.5-0.1-0.6-0.8-0.9
				L45.3,11L45.2,10.7z M48.3,11.7v-1.3l-1.8,0.6v0L48.3,11.7z"/>
			<path class="st0" d="M45.3,6.1l3.9-1.8l-3.9-1.7V1h0.2c0.1,0.7,0.1,0.7,1,0.7l2.8-0.1c0.9,0,0.9,0,1-0.7h0.2v2.3h-0.2
				c-0.1-0.6-0.1-0.7-1-0.6l-3.1,0v0l4.2,1.8v0.2l-4.1,1.8v0l2.1,0.1c0.7,0,1.2,0,1.4,0c0.3,0,0.4-0.2,0.4-0.7h0.2v1.9h-0.2
				c0-0.4-0.1-0.6-0.4-0.6c-0.2,0-0.7-0.1-1.5-0.1l-1.7-0.1c-1.1-0.1-1.2,0-1.2,0.7h-0.2V6.1z"/>
		</g>
	</g>
	<path d="M26,16.7"/>
	<g>
		<path class="st0" d="M42.4,1.4v26.2c0,9.6-16.5,13.7-16.5,13.7s-16.5-4-16.5-13.7V1.4H42.4z"/>
	</g>
	<path class="st1" d="M10.4,10.4l0.2-1.1h1.5v4.9h-1.2v-3.8H10.4z"/>
	<path class="st1" d="M16.4,10.5c0,0.5-0.3,0.9-0.8,1.1v0c0.6,0.2,1,0.6,1,1.3c0,1-1,1.5-1.8,1.5c-0.8,0-1.8-0.5-1.8-1.5
		c0-0.6,0.4-1.1,1-1.3v0c-0.4-0.1-0.8-0.6-0.8-1.1c0-0.9,0.8-1.4,1.6-1.4C15.6,9.2,16.4,9.6,16.4,10.5z M14.2,10.6
		c0,0.3,0.2,0.5,0.5,0.5s0.5-0.2,0.5-0.5c0-0.3-0.2-0.5-0.5-0.5S14.2,10.3,14.2,10.6z M14.2,12.8c0,0.3,0.3,0.6,0.6,0.6
		c0.3,0,0.6-0.3,0.6-0.6c0-0.3-0.3-0.6-0.6-0.6C14.5,12.2,14.2,12.4,14.2,12.8z"/>
	<path class="st1" d="M17.3,10.6V9.4h4l-2.7,4.8h-1.5l2.1-3.7H17.3z"/>
	<path class="st1" d="M25.2,11.8c0,1.2-0.6,2.5-2,2.5c-1.4,0-2-1.3-2-2.5s0.6-2.5,2-2.5C24.6,9.2,25.2,10.5,25.2,11.8z M22.4,11.8
		c0,0.5,0.1,1.5,0.8,1.5c0.6,0,0.8-1,0.8-1.5c0-0.5-0.2-1.4-0.8-1.4C22.6,10.3,22.4,11.3,22.4,11.8z"/>
	<g>
		<g>
			<path class="st1" d="M13.1,22.1c0,0,0.5,0.4-0.4,2.5c-0.2,0.4-1,1.9,0,3c0.7,0.8,1.8,0.5,1.8,0.5c0.1,0.4,0.1,0.6,0.1,0.6h-0.8
				c-0.7,0-0.8,0.8-0.8,0.8v3.3l0.5,0.5h1.8c0-0.8-1-1.2-1-1.2v-1.4H16c0.9-0.1,1.4-1.8,1.4-1.8l0.6,0.1c0,0.1-0.9,1.8-0.9,1.8
				l1.9,1.8v0.5h2.1c0.1-0.5-0.9-1-0.9-1l-1.3-1.4c-0.2-0.2,0-0.4,0.2-0.4c0.3-0.1,0.5-0.1,0.7-0.3c0.3-0.1,1.5-0.9,1-2.3
				c-0.5-1.4-2.2-0.9-2.2-1c0-0.2,0.9-2.2,0.9-2.2l-0.7-1.1l0.9,0.5l2.3-0.4c0.2,1.9,1.1,1.4,1.1,1.4v-1.4c0,0,0-0.9-0.9-1.2
				c-1-0.3-1.7-0.1-2.1-0.2c-0.3-0.1-0.2-0.3-0.2-0.3l1.3,0l1.2-1l0.7-0.1c1.2-0.2,0.8-1.1,0.8-1.1s-1.1,0-1.7,0
				c-0.6,0-2.3,1.2-2.3,1.2s-0.2-1.4,1-1.8c1.3-0.5,1-0.9,1-0.9l-1.2,0.4c0,0-0.1-0.1,0.1-0.4c0.1-0.2,1.1-0.5,1.1-0.5
				c0.8-0.3,0.5-0.9,0.5-0.9L20.9,17c-0.3-0.3-0.3-0.3-0.7-0.4c-0.4-0.1-1.1,0.5-1.1,0.3c0.1-0.2,0.1-0.8,0.2-1.4
				c0.1-0.6-1.7,2-1.7,2c-2.3,4.4-1.7,7.4-1.7,7.4c-1.5,0.7-1.5,2.4-1.5,1.9c0-2.5,0.8-2.3,0.8-3.9c0-1.6-1.7-1.4-1.7-1.4
				c-0.7,0-0.9,0.4-0.9,0.4S12.9,21.9,13.1,22.1z"/>
			<polygon class="st0" points="19.7,17.4 20.6,17.4 20.4,17.1 			"/>
		</g>
		<path class="st1" d="M26,33.5c0,0-1.3,0.1-2.5-1c-1.1-1.1-1.1-2.5-1.1-2.5v-2.6c0,0-0.3-0.1-0.3-0.4c0-0.4,0.4-0.3,0.4-0.3h0.8
			c0,0.9,0.5,0.8,0.5,0.8c0.6,0,0.5-0.8,0.5-0.8H26h0h1.7c0,0-0.1,0.8,0.5,0.8c0,0,0.5,0.1,0.5-0.8h0.8c0,0,0.4-0.1,0.4,0.3
			c0,0.3-0.3,0.4-0.3,0.4v2.6c0,0,0,1.3-1.1,2.5C27.3,33.6,26,33.5,26,33.5L26,33.5z"/>
		<g>
			<path class="st1" d="M38.8,22.1c0,0-0.5,0.4,0.4,2.5c0.2,0.4,1,1.9,0,3c-0.7,0.8-1.8,0.5-1.8,0.5c-0.1,0.4-0.1,0.6-0.1,0.6h0.8
				c0.7,0,0.8,0.8,0.8,0.8v3.3l-0.5,0.5h-1.8c0-0.8,1-1.2,1-1.2v-1.4h-1.7C35,30.7,34.6,29,34.6,29l-0.7,0.1c0,0.1,0.9,1.8,0.9,1.8
				l-1.9,1.8v0.5h-2.1c-0.1-0.5,0.9-1,0.9-1l1.3-1.4c0.2-0.2,0.1-0.4-0.2-0.4c-0.3-0.1-0.5-0.1-0.7-0.3c-0.3-0.1-1.5-0.9-1-2.3
				c0.5-1.4,2.2-0.9,2.2-1c0-0.2-0.9-2.2-0.9-2.2l0.7-1.1l-0.9,0.5L30,23.7c-0.2,1.9-1.1,1.4-1.1,1.4v-1.4c0,0,0-0.9,0.9-1.2
				c1-0.3,1.7-0.1,2.1-0.2c0.3-0.1,0.2-0.3,0.2-0.3l-1.3,0l-1.2-1l-0.7-0.1c-1.2-0.2-0.8-1.1-0.8-1.1s1.1,0,1.7,0
				c0.6,0,2.3,1.2,2.3,1.2s0.2-1.4-1-1.8c-1.3-0.5-1-0.9-1-0.9l1.2,0.4c0,0,0.1-0.1-0.1-0.4c-0.1-0.2-1.1-0.5-1.1-0.5
				c-0.8-0.3-0.5-0.9-0.5-0.9L31,17c0.3-0.3,0.3-0.3,0.7-0.4c0.4-0.1,1.1,0.5,1.1,0.3c-0.1-0.2-0.1-0.8-0.2-1.4
				c-0.1-0.6,1.7,2,1.7,2c2.3,4.4,1.7,7.4,1.7,7.4c1.5,0.7,1.5,2.4,1.5,1.9c0-2.5-0.8-2.3-0.8-3.9c0-1.6,1.7-1.4,1.7-1.4
				c0.7,0,0.9,0.4,0.9,0.4S39,21.9,38.8,22.1z"/>
			<polygon class="st0" points="32.2,17.4 31.3,17.4 31.5,17.1 			"/>
		</g>
		<path class="st1" d="M26.1,23.7l0-6.6l0,0c0.1-0.1,0.2-0.2,0.2-0.3c0-0.2-0.1-0.3-0.3-0.3c0,0,0,0,0,0c0,0,0,0,0,0
			c-0.2,0-0.3,0.1-0.3,0.3c0,0.1,0.1,0.2,0.2,0.3l0,0l0,6.6l-2.2,2.2v0.7h0.3l0-0.6l2-2.1l2,2.1l0,0.6h0.3v-0.7L26.1,23.7z"/>
	</g>
	<g>
		<polygon class="st2" points="26,1.4 26,3.5 28.3,1.4 		"/>
		<polygon class="st2" points="40.2,14.2 42.4,14.2 42.4,12.1 		"/>
		<polygon class="st2" points="30.7,1.4 26,5.6 26,7.8 33.1,1.4 		"/>
		<polygon class="st2" points="35.4,1.4 26,9.9 26,12.1 37.8,1.4 		"/>
		<polygon class="st2" points="40.2,1.4 26,14.2 28.3,14.2 42.4,1.4 		"/>
		<polygon class="st2" points="30.7,14.2 33.1,14.2 42.4,5.6 42.4,3.5 		"/>
		<polygon class="st2" points="35.4,14.2 37.8,14.2 42.4,9.9 42.4,7.8 		"/>
	</g>
	<g>
		<g>
			<path d="M62.3,29.2v-1.4c4.2-0.3,4.5-0.6,4.5-5.2V8c0-4.7-0.4-4.9-4.2-5.2V1.3h13.5v1.4C71.9,3,71.5,3.3,71.5,8v14.7
				c0,2.4,0.3,3.7,1.2,4.1c0.8,0.4,2.1,0.5,4.4,0.5c2.4,0,4.3-0.4,5.3-1.6c0.7-0.7,1.5-2.2,2.1-4.2l1.6,0.2
				c-0.3,1.4-1.2,6.2-1.6,7.4H62.3z"/>
			<path d="M86.4,15.9c0-10.5,8-15.3,14.4-15.3c8.7,0,14.3,6.3,14.3,14.4c0,9.8-7.2,15-14.3,15C91.5,29.9,86.4,22.6,86.4,15.9z
				 M101.4,28c4.7,0,8.4-3.1,8.4-11.9c0-7.1-3.4-13.7-9.4-13.7c-4.9,0-8.4,4.3-8.4,11.9C91.9,22.5,95.4,28,101.4,28z"/>
			<path d="M120.1,29.2v-1.4c4.4-0.3,4.7-0.6,4.7-5.2v-3.8c0-1.2-0.1-1.6-0.9-2.9c-1.3-2.3-3-5.2-5.7-9.9c-1.6-2.7-2-2.8-4.7-3.1
				V1.3h12.1v1.4L123.6,3c-1.4,0.2-1.5,0.6-0.8,1.8c0.3,0.6,4.2,7.5,5.6,9.9c1.9-3.3,3.8-7.5,4.7-9.5c0.8-1.7,0.7-2-1-2.2l-1.8-0.3
				V1.3h10.7v1.4c-3.3,0.3-3.5,0.7-5.1,3.2c-1.6,2.4-3.5,5.4-5.5,9c-0.9,1.7-1,2.1-1,3.1v4.5c0,4.6,0.4,4.9,4.8,5.2v1.4H120.1z"/>
			<path d="M139.5,15.9c0-10.5,8-15.3,14.4-15.3c8.7,0,14.3,6.3,14.3,14.4c0,9.8-7.2,15-14.3,15C144.6,29.9,139.5,22.6,139.5,15.9z
				 M154.5,28c4.7,0,8.4-3.1,8.4-11.9c0-7.1-3.4-13.7-9.4-13.7c-4.9,0-8.4,4.3-8.4,11.9C145,22.5,148.5,28,154.5,28z"/>
			<path d="M169.8,29.2v-1.4c4.2-0.3,4.5-0.6,4.5-5.2V8c0-4.7-0.4-4.9-4.2-5.2V1.3h13.5v1.4C179.4,3,179,3.3,179,8v14.7
				c0,2.4,0.3,3.7,1.2,4.1c0.8,0.4,2.1,0.5,4.4,0.5c2.4,0,4.3-0.4,5.3-1.6c0.7-0.7,1.5-2.2,2.1-4.2l1.6,0.2
				c-0.3,1.4-1.2,6.2-1.6,7.4H169.8z"/>
			<path d="M211.8,27.7l1.1-0.1c1.7-0.2,2.2-0.7,1-3.6l-2.1-5.1h-8.4c-0.4,1-1.5,3.9-2.1,5.8c-0.7,2.1-0.2,2.7,1.6,2.9l1.4,0.1v1.4
				h-10.6v-1.4c2.7-0.3,3.7-0.6,5.5-4.9l9-21.9l1.5-0.4l9,23c1.5,3.7,2.6,3.9,5.3,4.1v1.4h-12.2V27.7z M204.2,16.8h7l-3.5-9.5h-0.1
				L204.2,16.8z"/>
		</g>
		<g>
			<path d="M62.3,34.8h2v5.7c0,0.6,0.1,1.1,0.2,1.4c0.2,0.5,0.7,0.8,1.5,0.8c0.8,0,1.3-0.3,1.5-0.8c0.2-0.3,0.2-0.8,0.2-1.4v-5.7h2
				v5.7c0,1-0.2,1.8-0.5,2.3c-0.6,1-1.7,1.5-3.3,1.5c-1.6,0-2.7-0.5-3.3-1.5c-0.3-0.5-0.5-1.3-0.5-2.3V34.8z"/>
			<path d="M73.2,34.8h2l3.7,6.5v-6.5h1.8v9.3h-1.9L75,37.5v6.6h-1.8V34.8z"/>
			<path d="M86.1,44.1h-1.9v-9.3h1.9V44.1z"/>
			<path d="M94.9,34.8h2l-3.2,9.3H92l-3.1-9.3h2.1l2,7L94.9,34.8z"/>
			<path d="M106.1,36.5h-4.9v2h4.5V40h-4.5v2.4h5.1v1.7h-7v-9.3h6.8V36.5z"/>
			<path d="M115.2,35.1c0.3,0.1,0.6,0.4,0.9,0.6c0.2,0.2,0.4,0.5,0.5,0.8c0.1,0.3,0.2,0.6,0.2,1c0,0.4-0.1,0.9-0.3,1.3
				c-0.2,0.4-0.6,0.7-1.1,0.9c0.4,0.2,0.7,0.4,0.9,0.7c0.2,0.3,0.3,0.8,0.3,1.4v0.6c0,0.4,0,0.7,0.1,0.9c0.1,0.2,0.2,0.4,0.4,0.5
				v0.2h-2.1c-0.1-0.2-0.1-0.4-0.1-0.5c-0.1-0.3-0.1-0.5-0.1-0.8l0-0.9c0-0.6-0.1-1-0.3-1.2c-0.2-0.2-0.6-0.3-1.1-0.3h-1.9v3.6h-1.9
				v-9.3h4.4C114.4,34.8,114.9,34.9,115.2,35.1z M111.2,36.4v2.5h2.1c0.4,0,0.7-0.1,0.9-0.2c0.4-0.2,0.6-0.5,0.6-1
				c0-0.6-0.2-0.9-0.5-1.1c-0.2-0.1-0.5-0.2-0.9-0.2H111.2z"/>
			<path d="M120.9,41.2c0.1,0.4,0.2,0.7,0.4,0.9c0.3,0.4,0.9,0.6,1.6,0.6c0.5,0,0.8-0.1,1.1-0.2c0.6-0.2,0.8-0.5,0.8-1.1
				c0-0.3-0.1-0.5-0.4-0.7c-0.3-0.2-0.7-0.3-1.3-0.4l-1-0.2c-1-0.2-1.7-0.5-2-0.7c-0.6-0.4-0.9-1.1-0.9-2c0-0.8,0.3-1.5,0.9-2.1
				c0.6-0.5,1.5-0.8,2.7-0.8c1,0,1.8,0.3,2.5,0.8c0.7,0.5,1.1,1.3,1.1,2.3h-1.9c0-0.6-0.3-1-0.7-1.2c-0.3-0.2-0.7-0.2-1.2-0.2
				c-0.5,0-0.9,0.1-1.2,0.3c-0.3,0.2-0.5,0.5-0.5,0.8c0,0.3,0.1,0.6,0.4,0.7c0.2,0.1,0.6,0.2,1.2,0.4l1.6,0.4
				c0.7,0.2,1.2,0.4,1.6,0.7c0.6,0.4,0.8,1.1,0.8,1.9c0,0.8-0.3,1.5-1,2.1c-0.7,0.6-1.6,0.8-2.8,0.8c-1.2,0-2.2-0.3-2.9-0.8
				c-0.7-0.6-1-1.3-1-2.3H120.9z"/>
			<path d="M131.6,44.1h-1.9v-9.3h1.9V44.1z"/>
			<path d="M142.1,34.8v1.6h-2.8v7.6h-1.9v-7.6h-2.8v-1.6H142.1z"/>
			<path d="M149.4,34.8h2.2l-3.1,5.8v3.5h-1.9v-3.5l-3.2-5.8h2.3l1.9,4L149.4,34.8z"/>
			<path d="M159.8,35.8c0.7-0.8,1.7-1.1,2.8-1.1c1.5,0,2.7,0.5,3.4,1.5c0.4,0.6,0.6,1.1,0.6,1.7h-1.9c-0.1-0.4-0.3-0.8-0.5-1
				c-0.3-0.4-0.9-0.6-1.5-0.6c-0.7,0-1.2,0.3-1.6,0.9c-0.4,0.6-0.6,1.4-0.6,2.4c0,1,0.2,1.8,0.6,2.3c0.4,0.5,1,0.8,1.6,0.8
				c0.7,0,1.2-0.2,1.5-0.7c0.2-0.2,0.3-0.6,0.5-1.1h1.9c-0.2,1-0.6,1.8-1.3,2.5c-0.7,0.6-1.6,0.9-2.6,0.9c-1.3,0-2.4-0.4-3.1-1.3
				c-0.8-0.9-1.1-2-1.1-3.5C158.5,37.9,158.9,36.7,159.8,35.8z"/>
			<path d="M169.4,44.1v-9.3h1.9v3.5h3.6v-3.5h1.9v9.3h-1.9V40h-3.6v4.1H169.4z"/>
			<path d="M182.3,44.1h-1.9v-9.3h1.9V44.1z"/>
			<path d="M186.6,35.8c0.7-0.8,1.7-1.1,2.8-1.1c1.5,0,2.7,0.5,3.4,1.5c0.4,0.6,0.6,1.1,0.6,1.7h-1.9c-0.1-0.4-0.3-0.8-0.5-1
				c-0.3-0.4-0.9-0.6-1.5-0.6c-0.7,0-1.2,0.3-1.6,0.9c-0.4,0.6-0.6,1.4-0.6,2.4c0,1,0.2,1.8,0.6,2.3c0.4,0.5,1,0.8,1.6,0.8
				c0.7,0,1.2-0.2,1.5-0.7c0.2-0.2,0.4-0.6,0.5-1.1h1.9c-0.2,1-0.6,1.8-1.3,2.5c-0.7,0.6-1.6,0.9-2.6,0.9c-1.3,0-2.4-0.4-3.1-1.3
				c-0.8-0.9-1.1-2-1.1-3.5C185.3,38,185.7,36.7,186.6,35.8z"/>
			<path d="M198,34.9h2.2l3.3,9.3h-2.1l-0.6-1.9h-3.4l-0.6,1.9h-2L198,34.9z M197.9,40.6h2.4l-1.2-3.6L197.9,40.6z"/>
			<path d="M211.5,37.8c-0.1-0.6-0.5-1.1-1.1-1.3c-0.3-0.1-0.7-0.2-1.1-0.2c-0.7,0-1.4,0.3-1.8,0.8c-0.5,0.6-0.7,1.4-0.7,2.5
				c0,1.1,0.3,1.9,0.8,2.4c0.5,0.5,1.1,0.7,1.8,0.7c0.7,0,1.2-0.2,1.6-0.6c0.4-0.4,0.7-0.9,0.8-1.5h-2.1v-1.5h3.9v5h-1.3L212,43
				c-0.4,0.4-0.7,0.7-1,0.9c-0.5,0.3-1.1,0.5-1.9,0.5c-1.2,0-2.2-0.4-3-1.3c-0.8-0.9-1.2-2-1.2-3.5c0-1.5,0.4-2.7,1.2-3.6
				c0.8-0.9,1.9-1.4,3.3-1.4c1.2,0,2.1,0.3,2.8,0.9c0.7,0.6,1.1,1.3,1.2,2.2H211.5z"/>
			<path d="M222.8,43.3c-0.7,0.7-1.7,1.1-3,1.1c-1.3,0-2.3-0.4-3-1.1c-0.9-0.9-1.4-2.2-1.4-3.8c0-1.7,0.5-3,1.4-3.8
				c0.7-0.7,1.7-1.1,3-1.1c1.3,0,2.3,0.4,3,1.1c0.9,0.8,1.4,2.1,1.4,3.8C224.3,41.2,223.8,42.4,222.8,43.3z M221.6,41.9
				c0.4-0.6,0.7-1.4,0.7-2.4c0-1-0.2-1.8-0.7-2.4c-0.5-0.6-1.1-0.8-1.8-0.8c-0.8,0-1.4,0.3-1.8,0.8c-0.5,0.6-0.7,1.4-0.7,2.4
				c0,1,0.2,1.8,0.7,2.4c0.5,0.6,1.1,0.8,1.8,0.8C220.6,42.8,221.2,42.5,221.6,41.9z"/>
		</g>
	</g>
</g>
</svg>
